<svg width="20" height="20" viewBox="0 0 20 20" fill="currentColor" xmlns="http://www.w3.org/2000/svg">
<g clip-path="url(#clip0_160_2298)">
<path d="M13.1296 5.93272C13.1296 6.11814 13.0746 6.2994 12.9716 6.45357C12.8686 6.60774 12.7222 6.7279 12.5509 6.79886C12.3796 6.86981 12.1911 6.88838 12.0092 6.85221C11.8274 6.81603 11.6603 6.72674 11.5292 6.59563C11.3981 6.46452 11.3088 6.29747 11.2726 6.11562C11.2365 5.93376 11.255 5.74526 11.326 5.57395C11.3969 5.40265 11.5171 5.25623 11.6713 5.15322C11.8255 5.0502 12.0067 4.99522 12.1921 4.99522C12.4408 4.99522 12.6792 5.09399 12.855 5.26981C13.0309 5.44562 13.1296 5.68408 13.1296 5.93272ZM16.2445 12.2608C14.6226 14.321 12.0374 15.4437 8.55619 15.6023L6.83744 19.6194C6.78932 19.7326 6.70887 19.8291 6.60617 19.8968C6.50347 19.9645 6.38309 20.0003 6.2601 19.9999H6.22025C6.09146 19.9918 5.96832 19.9441 5.86775 19.8632C5.76717 19.7824 5.69409 19.6724 5.65853 19.5483L4.5015 15.4976L0.453064 14.3382C0.328667 14.3032 0.218156 14.2306 0.136742 14.1303C0.0553276 14.0299 0.0070124 13.9068 -0.00155419 13.7779C-0.0101208 13.649 0.0214824 13.5206 0.0889058 13.4103C0.156329 13.3001 0.256258 13.2135 0.374939 13.1624L4.39291 11.4437C4.54916 7.96163 5.67494 5.37647 7.73588 3.75538C11.1117 1.09913 15.932 1.97178 16.864 2.17334C17.0988 2.22408 17.314 2.3414 17.4839 2.51127C17.6538 2.68113 17.7711 2.89635 17.8218 3.13116C18.0281 4.06241 18.9015 8.88741 16.2445 12.2655V12.2608ZM12.6249 13.4851C11.9024 13.2099 11.2732 12.7346 10.8108 12.115C10.3485 11.4953 10.0721 10.7568 10.014 9.98585C9.24321 9.92786 8.50486 9.65159 7.88533 9.18936C7.26579 8.72713 6.79068 8.09804 6.51556 7.37569C5.96869 8.61475 5.67494 10.1187 5.63275 11.8773C5.62984 11.997 5.59257 12.1134 5.5254 12.2125C5.45822 12.3117 5.36396 12.3895 5.25385 12.4366L2.48744 13.6202L5.17963 14.3913C5.28165 14.4205 5.37456 14.4752 5.4496 14.5502C5.52464 14.6253 5.57933 14.7182 5.60853 14.8202L6.37728 17.5124L7.56322 14.746C7.61051 14.6355 7.68865 14.541 7.78828 14.4738C7.8879 14.4066 8.00479 14.3696 8.12494 14.3671C9.88119 14.3257 11.3851 14.0304 12.6249 13.4851ZM16.6038 3.396C15.7679 3.21475 11.4476 2.42803 8.51244 4.73819C8.14248 5.02975 7.80628 5.36176 7.5101 5.72803C7.48011 6.13642 7.53966 6.54644 7.68459 6.92942C7.82952 7.3124 8.05633 7.65912 8.34918 7.94534C8.64202 8.23157 8.99383 8.45039 9.38003 8.58653C9.76623 8.72266 10.1775 8.77282 10.5851 8.7335C10.6767 8.72481 10.7691 8.73646 10.8557 8.76762C10.9423 8.79878 11.021 8.84868 11.0861 8.91376C11.1512 8.97885 11.2011 9.0575 11.2322 9.1441C11.2634 9.23071 11.275 9.32312 11.2663 9.41475C11.227 9.82249 11.2772 10.2339 11.4134 10.6202C11.5496 11.0065 11.7686 11.3584 12.055 11.6513C12.3414 11.9442 12.6883 12.171 13.0715 12.3158C13.4547 12.4606 13.8649 12.52 14.2734 12.4898C14.6391 12.1941 14.9706 11.8584 15.2617 11.489C17.5718 8.55381 16.7851 4.23272 16.6038 3.396Z" fill="currentColor"/>
</g>
<defs>
<clipPath id="clip0_160_2298">
<rect width="20" height="20" fill="currentColor"/>
</clipPath>
</defs>
</svg>
