<svg width="24" height="25" viewBox="0 0 24 25" fill="none" xmlns="http://www.w3.org/2000/svg">
<path d="M12.0788 15.4502L15.0328 12.4963M15.0328 12.4963L12.0788 9.54237M15.0328 12.4963H4.20166M9.12489 7.81826V7.77001C9.12489 6.6672 9.12489 6.1158 9.33954 5.69437C9.5286 5.32316 9.82891 5.02285 10.2001 4.83379C10.6216 4.61914 11.173 4.61914 12.2758 4.61914H16.8051C17.9079 4.61914 18.4593 4.61914 18.8798 4.83379C19.251 5.02285 19.5523 5.32316 19.7413 5.69437C19.956 6.11482 19.956 6.66622 19.956 7.76705V17.2266C19.956 18.3274 19.956 18.8778 19.7413 19.2982C19.5522 19.6688 19.2506 19.9701 18.8798 20.1588C18.4593 20.3735 17.9089 20.3735 16.8081 20.3735H12.2728C11.172 20.3735 10.6206 20.3735 10.2001 20.1588C9.8296 19.97 9.52834 19.6688 9.33954 19.2982C9.12489 18.8768 9.12489 18.3254 9.12489 17.2226V17.1734" stroke="black" stroke-width="1.57543" stroke-linecap="round" stroke-linejoin="round"/>
</svg>
