<svg width="596" height="413" viewBox="0 0 596 413" fill="none" xmlns="http://www.w3.org/2000/svg">
<g clip-path="url(#clip0_82_186)">
<path d="M230.428 37.3119H158.119C155.638 37.3119 153.62 35.21 153.62 32.6266C153.62 30.0432 155.638 27.9413 158.119 27.9413H230.428C232.908 27.9413 234.927 30.0432 234.927 32.6266C234.927 35.21 232.908 37.3119 230.428 37.3119Z" fill="#E6E7E8"/>
<path d="M286.858 53.17H158.119C155.638 53.17 153.62 51.0681 153.62 48.4846C153.62 45.9012 155.638 43.7993 158.119 43.7993H286.858C289.339 43.7993 291.357 45.9012 291.357 48.4846C291.357 51.0681 289.339 53.17 286.858 53.17Z" fill="#E6E7E8"/>
<path d="M286.858 68.8853H158.119C155.638 68.8853 153.62 66.7834 153.62 64.2C153.62 61.6166 155.638 59.5147 158.119 59.5147H286.858C289.339 59.5147 291.357 61.6166 291.357 64.2C291.357 66.7834 289.339 68.8853 286.858 68.8853Z" fill="#E6E7E8"/>
<path d="M300.495 150.439V148.194C275.612 148.194 253.883 127.026 248.105 97.5394L257.481 100.051C252.946 95.577 248.365 88.0868 245.523 81.9652C243.845 88.5369 240.71 96.7956 237.071 102.084L245.942 97.7074C251.841 128.384 274.504 150.439 300.495 150.439Z" fill="#3F3D56"/>
<path d="M291.083 64.5227C291.083 66.9985 289.148 69.0128 286.771 69.0128H230.722C228.344 69.0128 226.41 66.9985 226.41 64.5227C226.41 62.0469 228.344 60.0326 230.722 60.0326H286.771C289.148 60.0326 291.083 62.0469 291.083 64.5227Z" fill="#6C63FF"/>
<path d="M38.7 314.641C37.8468 311.547 36.3856 308.907 34.6461 307.025L28.3258 277.02L14.5493 280.535L22.4439 310.593C21.9247 313.136 22.0286 316.173 22.8819 319.267C24.8311 326.335 29.9523 331.03 34.3203 329.753C38.6884 328.475 40.6492 321.71 38.7 314.641Z" fill="#FFB6B6"/>
<path d="M36.7939 117.816C36.7939 117.816 21.9139 117.281 13.2909 127.384C3.41164 139.952 -3.34131 189.198 1.72815 192.514L15.4631 294.087L35.049 291.284L30.0223 169.412L36.7939 117.816Z" fill="#6C63FF"/>
<path d="M137.246 289.028L133.681 412.996H82.4821L80.4127 365.21L71.3154 412.996H16.4409L23.2854 330.85L30.3562 313.574L35.142 301.866L137.246 289.028Z" fill="#2F2E41"/>
<path d="M96.5809 97.5668L61.0111 95.3217L49.1545 111.037C38.9144 113.32 29.6653 116.268 23.2855 121.14C24.8118 168.203 21.4589 229.398 35.1421 241.25L22.9917 330.561C22.9917 330.561 27.8917 326.189 36.0768 327.733C38.9045 328.266 42.318 334.9 45.7927 335.302C72.4912 338.391 115.787 335.214 137.246 289.028L128.917 222.167L131.073 124.507C124.334 118.96 115.955 115.354 106.282 113.282L96.5809 97.5668Z" fill="#6C63FF"/>
<path d="M165.059 70.2458C165.445 74.1376 164.955 77.7975 163.826 80.7318L169.751 117.564L152.84 119.988L148.65 82.364C146.969 79.7318 145.772 76.2535 145.386 72.3618C144.504 63.4711 148.193 55.7902 153.626 55.2059C159.058 54.6216 164.177 61.3552 165.059 70.2458Z" fill="#FFB6B6"/>
<path d="M108.834 127.321C107.063 130.042 107.556 133.1 107.133 136.775C105.339 152.374 134.042 198.469 153.903 203.776C156.509 204.473 157.994 207.4 160.624 207.989C168.417 209.733 175.672 203.292 175.251 195.003L169.856 88.6906L147.192 96.7414L148.643 151.937C148.498 140.502 138.416 128.859 130.779 124.016C130.779 124.016 115.311 117.369 108.834 127.321Z" fill="#6C63FF"/>
<path d="M82.4876 92.4168C99.7914 92.4168 113.819 77.8082 113.819 59.7876C113.819 41.7669 99.7914 27.1583 82.4876 27.1583C65.1838 27.1583 51.1562 41.7669 51.1562 59.7876C51.1562 77.8082 65.1838 92.4168 82.4876 92.4168Z" fill="#FFB6B6"/>
<path d="M111.671 35.8279C111.402 35.8953 115.796 31.4353 115.983 31.3378C120.294 29.0927 115.864 51.0381 112.749 50.4207C105.085 48.9053 101.776 45.8969 98.8015 53.4066C97.9715 55.4945 97.4542 57.8518 95.8374 59.3448C93.617 61.3766 89.9306 61.2081 88.1198 63.6328C86.6647 65.586 87.085 68.4597 88.1629 70.6598C89.2408 72.8712 90.8792 74.7458 91.86 77.0021C92.9595 79.539 88.2707 87.61 86.4814 92.1449V92.1562L86.4708 92.1827C85.9954 93.3723 84.8656 89.9456 83.6727 89.6036C82.2454 89.1943 80.1426 92.7042 77.8692 92.0664C77.8584 92.0664 77.8476 92.0551 77.8369 92.0551C75.6703 91.4265 73.2559 90.753 70.863 90.0795H70.8523C64.1156 88.1712 62.4125 90.9102 62.0892 90.8316L57.907 86.2742C56.4718 85.1859 56.634 81.6725 55.6219 80.7289C54.7942 79.9572 52.7309 81.7404 52.1227 80.9986C49.1409 77.3616 48.4549 73.7233 46.6971 66.5402C45.0911 59.9734 41.7605 40.318 48.605 39.4312C55.0614 38.5893 50.3403 29.2274 56.8399 29.5754C56.4519 27.8692 57.1741 26.0394 58.349 24.7822C59.513 23.5138 61.0652 22.728 62.6281 22.0545C70.3349 18.7767 69.0522 15.9593 77.1794 17.8675C77.9878 16.6888 88.3541 13.6161 89.82 14.009C89.9278 14.0315 87.5593 18.8217 93.3475 17.8675C93.1319 19.2482 96.2873 16.2541 96.5811 21.2351C102.755 17.3766 106.077 26.6119 106.282 27.9702C106.551 29.6652 104.094 28.8009 105.732 29.059C106.702 29.2162 108.362 31.2704 108.201 32.2919C108.901 31.3041 109.602 30.3275 110.313 29.3397C110.443 29.3509 110.561 29.3734 110.69 29.3958C113.967 30.0469 110.211 41.2025 110.346 37.725C110.593 31.3378 114.937 35.0758 111.671 35.8279Z" fill="#2F2E41"/>
<path d="M511.311 29.1382C510.153 39.0471 508.888 48.9424 507.517 58.8216C506.959 62.8341 506.37 66.8976 504.82 70.6166C503.762 73.1551 502.28 75.4732 500.806 77.7759C499.065 80.497 497.294 83.2527 494.929 85.4037C492.564 87.5546 489.491 89.065 486.36 88.8122C494.667 82.989 500.25 73.1399 501.132 62.7525C501.546 57.8698 500.977 52.9616 500.868 48.0612C500.759 43.1607 501.153 38.0897 503.324 33.7405C505.495 29.3914 509.784 25.9099 514.489 26.0336L511.311 29.1382Z" fill="#2F2E41"/>
<path d="M427.126 240.479C420.367 246.188 412.06 247.185 408.572 242.706C405.084 238.227 407.735 229.967 414.493 224.259C417.452 221.76 420.707 220.164 423.725 219.535L452.656 195.719L463.098 210.095L433.47 232.047C432.256 234.993 430.085 237.98 427.126 240.479Z" fill="#A0616A"/>
<path d="M432.591 208.148L475.698 165.55L480.01 162.182C480.01 162.182 504.755 137.075 511.163 136.5C513.877 136.257 516.591 136.962 518.877 138.509C522.571 141.003 524.484 145.109 524.484 149.247C524.484 152.705 523.146 156.18 520.409 158.739L480.944 195.635L464.155 211.33L443.275 230.856L441.153 226.353L433.975 211.095L432.591 208.148Z" fill="#6C63FF"/>
<path d="M524.766 179.319L481.604 193.087C488.83 195.206 491.856 241.063 485.131 242.487C485.131 242.487 556.664 247.786 552.76 242.487C548.002 236.028 554.384 193.105 557.426 193.087L524.766 179.319Z" fill="#A0616A"/>
<path d="M582.199 413L578.426 365.585C578.426 348.623 577.37 333.301 575.677 319.64C568.898 264.804 551.9 236.696 551.9 236.696H488.305C488.219 236.797 488.133 236.876 488.046 236.977L488.036 236.988C473.032 253.411 465.228 294.708 461.757 319.64C460.108 331.505 459.44 339.665 459.44 339.665L453.22 397.229L457.715 413H494.718L494.136 409.621L517.947 319.64L518.238 318.539L518.496 319.64L540.571 413L582.199 413Z" fill="#2F2E41"/>
<path d="M489.608 151.967L503.046 123.716L514.369 103.191L523.526 93.4733H548.585L550.918 103.191L564.915 111.29L569.866 151.782L552.227 239.637C531.231 221.82 487.956 216.886 487.956 216.886L480.944 195.635L476.309 170.036L475.75 166.975L489.608 151.967Z" fill="#6C63FF"/>
<path d="M487.996 203.071C479.297 202.814 472.372 197.932 472.529 192.167C472.687 186.402 479.866 181.937 488.565 182.194C492.372 182.307 495.84 183.305 498.523 184.876L535.369 186.447L534.293 204.439L498.084 200.981C495.32 202.391 491.804 203.183 487.996 203.071Z" fill="#A0616A"/>
<path d="M535.117 141.66L569.875 177.597L509.333 184.054L495.263 204.663L579.648 207.577C587.262 210.401 595.372 204.921 595.998 196.53C596.21 193.696 578.874 121.801 568.379 115.127C556.078 107.304 535.117 141.66 535.117 141.66Z" fill="#6C63FF"/>
<path d="M559.261 58.2114C559.514 41.8884 547.012 28.4425 531.339 28.1793C515.665 27.9161 502.754 40.9352 502.501 57.2583C502.248 73.5814 514.75 87.0272 530.423 87.2904C546.097 87.5536 559.008 74.5345 559.261 58.2114Z" fill="#A0616A"/>
<path d="M593.186 149.835C592.475 152.641 586.935 154.089 585.641 157.692C581.524 160.139 583.755 140.147 582.095 138.834C580.812 137.835 580.468 140.248 580.176 138.172C579.077 130.381 571.888 132.121 566.563 130.864C565.959 129.64 565.496 128.45 565.194 127.294C564.655 125.206 562.198 124.477 560.743 126.015C560.085 125.408 559.611 123.264 559.147 121.12C558.813 119.56 558.479 118 558.091 117.012L554.383 108.301L555.579 114.789C553.154 113.88 550.708 114.823 549.295 111.702C547.485 107.695 546.762 103.003 548.078 98.7933C549.274 94.9768 551.29 87.3324 553.564 81.0013C550.988 82.9433 547.894 84.3577 544.305 85.0649C545.577 82.5504 546.87 79.991 547.409 77.196C547.937 74.4009 547.614 71.2915 545.911 69.0689C544.51 67.2392 542.44 67.6994 540.694 66.2289C539.336 65.0839 538.161 62.1542 537.342 60.5489C540.834 72.6385 543.475 85.4802 539.034 97.0198C535.962 105.012 529.495 111.512 521.734 114.464C525.862 111.388 529.894 108.11 532.987 103.935C536.296 99.4556 538.452 93.7981 537.795 88.1855C536.76 79.3737 521.066 51.5013 519.137 46.0234C520.193 51.3779 519.783 55.5537 517.002 57.8549C516.28 50.087 508.153 50.7941 503.723 47.6848C503.723 47.6848 500.295 27.513 508.336 27.3895C512.217 27.3334 516.28 17.8368 519.805 16.1418C525.431 13.4365 528.881 15.2775 535.121 15.4795C541.352 15.6703 547.334 18.4654 551.139 23.5954C553.133 26.2782 553.866 24.1454 556.862 25.8179C559.708 27.4007 561.626 25.9302 564.849 26.0312C571.306 26.2109 577.568 29.803 581.19 35.3594C584.811 40.9272 587.043 40.4108 585.609 49.0206C585.587 49.1216 585.587 49.3236 585.609 49.6267C586.396 63.1868 584.38 76.7806 579.217 89.2631C577.622 93.1021 585.425 97.0645 585.414 101.858C585.403 107.425 576.792 112.499 577.59 114.879C579.875 126.34 592.712 123.792 589.683 142.976C589.436 144.536 593.661 147.96 593.186 149.835Z" fill="#2F2E41"/>
<path d="M514.553 114.734C514.79 114.656 515.028 114.566 515.265 114.465C514.963 114.689 514.672 114.902 514.37 115.127L514.553 114.734Z" fill="#2F2E41"/>
<path d="M554.534 20.1608C551.446 20.6387 548.31 15.3038 550.063 7.90562C553.883 13.9892 555.836 20.8378 556.143 28.3605L554.084 29.0248L554.534 20.1608Z" fill="#6C63FF"/>
<path d="M570.309 13.2553C568.202 21.0306 557.502 26.2343 555.612 23.5284L555.396 28.1652L554.073 26.3929C557.91 20.4497 563.141 15.8906 570.309 13.2553Z" fill="#6C63FF"/>
<path d="M335.349 222.927C335.349 220.343 337.367 218.241 339.848 218.241H412.157C414.637 218.241 416.656 220.343 416.656 222.927C416.656 225.51 414.637 227.612 412.157 227.612H339.848C337.367 227.612 335.349 225.51 335.349 222.927Z" fill="#E6E7E8"/>
<path d="M335.349 254.357C335.349 251.774 337.367 249.672 339.848 249.672H412.157C414.637 249.672 416.656 251.774 416.656 254.357C416.656 256.941 414.637 259.043 412.157 259.043H339.848C337.367 259.043 335.349 256.941 335.349 254.357Z" fill="#E6E7E8"/>
<path d="M283.417 243.47C280.937 243.47 278.918 241.368 278.918 238.785C278.918 236.201 280.937 234.099 283.417 234.099H412.157C414.637 234.099 416.656 236.201 416.656 238.785C416.656 241.368 414.637 243.47 412.157 243.47H283.417Z" fill="#E6E7E8"/>
<path d="M273.846 198.627L264.976 194.251C268.614 199.539 271.749 207.798 273.428 214.37C276.269 208.248 280.851 200.758 285.385 196.284L276.01 198.795C281.787 169.309 303.516 148.141 328.399 148.141V145.896C302.408 145.896 279.745 167.951 273.846 198.627Z" fill="#3F3D56"/>
<path d="M314.675 243.555H258.626C256.249 243.555 254.314 241.541 254.314 239.065C254.314 236.589 256.249 234.575 258.626 234.575H314.675C317.053 234.575 318.987 236.589 318.987 239.065C318.987 241.541 317.053 243.555 314.675 243.555Z" fill="#6C63FF"/>
<path d="M331.046 151.727C332.539 142.145 326.291 133.117 317.09 131.562C307.89 130.008 299.221 136.514 297.728 146.096C296.235 155.677 302.483 164.705 311.684 166.26C320.884 167.815 329.553 161.308 331.046 151.727Z" fill="#3F3D56"/>
<path d="M222.768 21.6813C228.517 21.6813 233.177 16.8278 233.177 10.8406C233.177 4.85352 228.517 0 222.768 0C217.019 0 212.358 4.85352 212.358 10.8406C212.358 16.8278 217.019 21.6813 222.768 21.6813Z" fill="#E6E7E8"/>
<path d="M344.567 209.143C350.316 209.143 354.977 204.289 354.977 198.302C354.977 192.315 350.316 187.462 344.567 187.462C338.818 187.462 334.158 192.315 334.158 198.302C334.158 204.289 338.818 209.143 344.567 209.143Z" fill="#E6E7E8"/>
</g>
<defs>
<clipPath id="clip0_82_186">
<rect width="596" height="413" fill="white"/>
</clipPath>
</defs>
</svg>
