<svg width="585" height="421" viewBox="0 0 585 421" fill="none" xmlns="http://www.w3.org/2000/svg">
<g clip-path="url(#clip0_82_130)">
<path d="M569.51 420.071C569.51 420.586 569.098 421 568.584 421H0.926147C0.412415 421 -0.00012207 420.586 -0.00012207 420.071C-0.00012207 419.556 0.412415 419.142 0.926147 419.142H568.584C569.098 419.142 569.51 419.556 569.51 420.071Z" fill="#3F3D58"/>
<path d="M387.738 74.2615H569.799C576.742 74.2615 582.393 68.5953 582.393 61.6336C582.393 54.6718 576.742 49.0056 569.799 49.0056H387.738C380.795 49.0056 375.144 54.6718 375.144 61.6336C375.144 68.5953 380.795 74.2615 387.738 74.2615ZM569.799 50.5665C575.885 50.5665 580.836 55.5303 580.836 61.6336C580.836 67.7368 575.885 72.7006 569.799 72.7006H387.738C381.651 72.7006 376.7 67.7368 376.7 61.6336C376.7 55.5303 381.651 50.5665 387.738 50.5665H569.799Z" fill="#E2E3E4"/>
<path d="M387.738 222.043H569.799C576.531 222.043 582.003 216.556 582.003 209.805C582.003 203.054 576.531 197.568 569.799 197.568H387.738C381.005 197.568 375.533 203.054 375.533 209.805C375.533 216.556 381.005 222.043 387.738 222.043Z" fill="#6C63FF"/>
<path d="M447.4 24.4755H572.795C579.528 24.4755 585 18.9888 585 12.2377C585 5.48669 579.528 0 572.795 0H447.4C440.667 0 435.195 5.48669 435.195 12.2377C435.195 18.9888 440.667 24.4755 447.4 24.4755Z" fill="#E2E3E4"/>
<path d="M387.738 123.65H569.799C576.742 123.65 582.393 117.983 582.393 111.022C582.393 104.06 576.742 98.3936 569.799 98.3936H387.738C380.795 98.3936 375.144 104.06 375.144 111.022C375.144 117.983 380.795 123.65 387.738 123.65ZM569.799 99.9545C575.885 99.9545 580.836 104.918 580.836 111.022C580.836 117.125 575.885 122.089 569.799 122.089H387.738C381.651 122.089 376.7 117.125 376.7 111.022C376.7 104.918 381.651 99.9545 387.738 99.9545H569.799Z" fill="#E2E3E4"/>
<path d="M387.738 173.045H569.799C576.742 173.045 582.393 167.379 582.393 160.417C582.393 153.456 576.742 147.789 569.799 147.789H387.738C380.795 147.789 375.144 153.456 375.144 160.417C375.144 167.379 380.795 173.045 387.738 173.045ZM569.799 149.35C575.885 149.35 580.836 154.314 580.836 160.417C580.836 166.521 575.885 171.484 569.799 171.484H387.738C381.651 171.484 376.7 166.521 376.7 160.417C376.7 154.314 381.651 149.35 387.738 149.35H569.799Z" fill="#E2E3E4"/>
<path d="M576.056 39.9365H528.342C527.206 39.9365 526.28 40.8575 526.28 42.0048C526.28 43.1443 527.206 44.073 528.342 44.073H576.056C577.193 44.073 578.119 43.1521 578.119 42.0048C578.119 40.8653 577.193 39.9365 576.056 39.9365Z" fill="#E2E3E4"/>
<path d="M576.056 90.4952H528.342C527.206 90.4952 526.28 91.4162 526.28 92.5557C526.28 93.6952 527.206 94.6239 528.342 94.6239H576.056C577.193 94.6239 578.119 93.703 578.119 92.5635C578.119 91.424 577.193 90.4952 576.056 90.4952Z" fill="#E2E3E4"/>
<path d="M576.056 141.062H528.342C527.206 141.062 526.28 141.983 526.28 143.13C526.28 144.27 527.206 145.19 528.342 145.19H576.056C577.193 145.19 578.119 144.27 578.119 143.122C578.119 141.983 577.193 141.062 576.056 141.062Z" fill="#E2E3E4"/>
<path d="M237.006 103.225L254.411 108.969V83.8457H238.617L237.006 103.225Z" fill="#9F616A"/>
<path d="M252.255 90.7996C242.677 90.7996 234.912 83.0144 234.912 73.4108C234.912 63.8072 242.677 56.022 252.255 56.022C261.832 56.022 269.597 63.8072 269.597 73.4108C269.597 83.0144 261.832 90.7996 252.255 90.7996Z" fill="#9F616A"/>
<path d="M247.491 71.686C250.394 71.6001 252.301 68.6578 253.43 65.973C254.558 63.2881 255.718 60.2053 258.411 59.097C260.614 58.1917 264.498 64.3184 266.234 62.6872C268.048 60.9858 266.281 52.2523 264.358 50.6836C262.436 49.1149 259.805 48.8105 257.329 48.6934C251.289 48.4124 245.21 48.9041 239.287 50.1451C235.621 50.9099 231.853 52.065 229.207 54.7186C225.86 58.0902 225.004 63.1711 224.762 67.9241C224.513 72.7864 224.794 77.8751 227.152 82.1286C229.51 86.3822 234.445 89.5197 239.178 88.4348C239.653 85.8593 239.17 83.2135 238.983 80.5911C238.804 77.9766 238.991 75.1513 240.587 73.0674C242.175 70.9836 245.584 70.1563 247.436 72.006" fill="#2F2E43"/>
<path d="M226.156 77.7112C224.42 76.439 222.342 75.3698 220.209 75.6352C217.905 75.9161 215.951 77.8205 215.36 80.076C214.768 82.3316 215.43 84.8135 216.862 86.6554C218.287 88.4973 220.411 89.7148 222.653 90.3236C223.953 90.6748 225.378 90.8231 226.615 90.2923C228.436 89.5041 229.425 87.1705 228.709 85.313" fill="#2F2E43"/>
<path d="M292.52 241.321C293.679 247.034 291.554 252.255 287.787 252.981C284.02 253.707 280.027 249.656 278.875 243.943C278.384 241.664 278.462 239.307 279.101 237.059L264.755 147.501L282.697 144.113L289.624 235.038C291.095 236.88 292.084 239.034 292.52 241.328V241.321Z" fill="#9F616A"/>
<path d="M254.597 97.4414H266.841C275.496 98.7604 277.847 103.389 279.816 111.943C282.821 124.992 286.658 142.365 285.895 142.623C284.673 143.029 263.829 152.862 253.204 150.615L254.597 97.4414Z" fill="#E2E3E4"/>
<path d="M242.759 382.71H259.058V405.898H242.759V382.71Z" fill="#9F616A"/>
<path d="M274.928 419.931C276.641 419.931 278.166 419.892 279.318 419.782C283.646 419.384 287.779 416.177 289.858 414.304C290.792 413.461 291.087 412.118 290.605 410.963C290.254 410.136 289.562 409.512 288.698 409.27L277.256 405.992L258.73 393.457L258.52 393.832C258.442 393.972 256.621 397.258 256.014 399.475C255.78 400.318 255.843 401.02 256.193 401.566C256.434 401.941 256.777 402.16 257.049 402.284C256.714 402.636 255.664 403.354 252.426 403.869C247.701 404.618 246.705 399.709 246.666 399.506L246.635 399.342L246.494 399.248C244.245 397.797 242.859 397.133 242.385 397.274C242.089 397.36 241.591 397.516 240.244 410.885C240.112 411.307 239.17 414.382 239.808 417.324C240.501 420.524 254.449 419.423 257.244 419.174C257.322 419.182 267.767 419.931 274.921 419.931H274.928Z" fill="#2F2E43"/>
<path d="M196.347 364.492L210.177 373.141L197.94 392.816L184.11 384.167L196.347 364.492Z" fill="#9F616A"/>
<path d="M214.714 416.754C216.629 416.754 218.388 416.52 219.641 416.302C220.871 416.083 221.836 415.1 222.038 413.867C222.178 412.977 221.922 412.079 221.314 411.416L213.336 402.565L204.229 382.102L203.856 382.304C203.715 382.382 200.439 384.201 198.749 385.762C198.103 386.355 197.784 386.987 197.8 387.635C197.808 388.088 197.979 388.447 198.15 388.704C197.683 388.829 196.414 388.876 193.394 387.596C188.989 385.731 190.732 381.032 190.81 380.837L190.872 380.681L190.802 380.533C189.658 378.106 188.841 376.81 188.358 376.677C188.055 376.591 187.557 376.459 179.36 387.097C179.026 387.377 176.605 389.493 175.593 392.326C174.495 395.408 186.91 401.879 189.409 403.143C189.487 403.205 202.478 412.672 207.818 415.365C209.935 416.434 212.441 416.762 214.722 416.762L214.714 416.754Z" fill="#2F2E43"/>
<path d="M230.756 188.803H276.392L280.533 231.37L262.412 388.65H239.116L248.433 297.811L210.643 379.823L189.938 365.29L219.446 288.726C219.446 288.726 208.907 222.028 217.189 205.411C225.471 188.803 230.756 188.803 230.756 188.803Z" fill="#2F2E43"/>
<path d="M208.051 191.394H280.533L258.785 97.4414H227.207L208.051 191.394Z" fill="#E2E3E4"/>
<path d="M201.528 241.321C200.368 247.034 202.493 252.255 206.26 252.981C210.028 253.707 214.021 249.656 215.173 243.943C215.663 241.664 215.585 239.307 214.947 237.059L229.292 147.501L211.351 144.113L204.424 235.038C202.952 236.88 201.964 239.034 201.528 241.328V241.321Z" fill="#9F616A"/>
<path d="M239.45 97.4414H227.207C218.551 98.7604 216.201 103.389 214.231 111.943C211.227 124.992 207.389 142.365 208.152 142.623C209.374 143.029 230.219 152.862 240.844 150.615L239.45 97.4414Z" fill="#E2E3E4"/>
</g>
<defs>
<clipPath id="clip0_82_130">
<rect width="585" height="421" fill="white" transform="matrix(-1 0 0 1 585 0)"/>
</clipPath>
</defs>
</svg>
